<svg width="19" height="23" viewBox="0 0 19 23" fill="none" xmlns="http://www.w3.org/2000/svg">
<path fill-rule="evenodd" clip-rule="evenodd" d="M1 9.44843C1.01577 4.76661 4.7917 0.984143 9.43376 1.00005C14.0758 1.01596 17.8262 4.82421 17.8104 9.50603V9.60203C17.7533 12.6454 16.0684 15.4583 14.0028 17.6568C12.8215 18.894 11.5023 19.9893 10.0715 20.9209C9.68895 21.2547 9.12146 21.2547 8.73888 20.9209C6.60591 19.5207 4.73387 17.7529 3.20839 15.6983C1.84876 13.9067 1.07681 11.7321 1 9.47723L1 9.44843Z" stroke="#181725" stroke-width="2" stroke-linecap="round" stroke-linejoin="round"/>
<path fill-rule="evenodd" clip-rule="evenodd" d="M9.40523 11.9731C10.6984 11.9731 11.7467 10.9158 11.7467 9.61156C11.7467 8.30731 10.6984 7.25 9.40523 7.25C8.11205 7.25 7.06372 8.30731 7.06372 9.61156C7.06372 10.9158 8.11205 11.9731 9.40523 11.9731Z" stroke="#181725" stroke-width="2" stroke-linecap="round" stroke-linejoin="round"/>
</svg>
