<svg width="20" height="16" viewBox="0 0 20 16" fill="none" xmlns="http://www.w3.org/2000/svg">
<path d="M2 0.0996094H18C18.5015 0.0996094 18.9839 0.313586 19.3408 0.696289C19.698 1.07937 19.9004 1.60094 19.9004 2.14551V12.8711C19.9003 13.4155 19.6979 13.9363 19.3408 14.3193C18.9839 14.7021 18.5015 14.916 18 14.916H2C1.49848 14.916 1.01612 14.7021 0.65918 14.3193C0.30209 13.9363 0.099697 13.4155 0.0996094 12.8711V2.14551C0.0996094 1.60094 0.302012 1.07937 0.65918 0.696289C1.01611 0.313586 1.49854 0.0996094 2 0.0996094ZM1.90039 12.9707H18.0996V2.04492H1.90039V12.9707ZM11 7.6084H16C16.2363 7.6084 16.4644 7.70892 16.6338 7.89062C16.8033 8.07246 16.9003 8.32017 16.9004 8.58008C16.9004 8.84018 16.8034 9.08857 16.6338 9.27051C16.4644 9.45221 16.2363 9.55273 16 9.55273H11C10.7637 9.55273 10.5356 9.45221 10.3662 9.27051C10.1966 9.08857 10.0996 8.84018 10.0996 8.58008C10.0997 8.32017 10.1967 8.07246 10.3662 7.89062C10.5356 7.70892 10.7637 7.6084 11 7.6084ZM11 4.39062H16C16.2363 4.39062 16.4644 4.49115 16.6338 4.67285C16.8034 4.85479 16.9004 5.1032 16.9004 5.36328C16.9003 5.62319 16.8033 5.87091 16.6338 6.05273C16.4644 6.23444 16.2363 6.33496 16 6.33496H11C10.7637 6.33496 10.5356 6.23444 10.3662 6.05273C10.1967 5.87091 10.0997 5.62319 10.0996 5.36328C10.0996 5.1032 10.1966 4.85479 10.3662 4.67285C10.5356 4.49115 10.7637 4.39062 11 4.39062Z" fill="#181725" stroke="white" stroke-width="0.2"/>
<g clip-path="url(#clip0_1_1296)">
<path d="M6.75017 5.19572V5.75842C6.75017 6.06283 6.61258 6.3488 6.3741 6.55174C6.12644 6.76391 5.80541 6.88383 5.46603 6.88383C5.12665 6.88383 4.79644 6.76391 4.55796 6.55174C4.31947 6.3488 4.18188 6.06283 4.18188 5.75842V5.19572C4.18188 4.90053 4.31947 4.61457 4.55796 4.4024C4.79644 4.19023 5.12665 4.07031 5.46603 4.07031C5.80541 4.07031 6.12644 4.19023 6.3741 4.4024C6.61258 4.61457 6.75017 4.90053 6.75017 5.19572Z" fill="#181725"/>
<path d="M7.71325 8.5165V8.97773C7.71325 9.19913 7.60318 9.42052 7.4289 9.57734C7.24545 9.73415 6.9978 9.8264 6.75014 9.8264H4.18186C3.92503 9.8264 3.67737 9.73415 3.5031 9.57734C3.31965 9.42052 3.21875 9.19913 3.21875 8.97773V8.48883C3.21875 8.17519 3.32882 7.86155 3.53061 7.60326C3.73241 7.34497 4.01675 7.14203 4.34696 7.02211C4.39282 7.01289 4.42951 7.00366 4.47538 7.00366C4.52124 7.00366 4.55793 7.01289 4.60379 7.02211H6.24566C6.264 7.02211 6.27317 7.02211 6.28235 7.03134C6.28235 7.02211 6.29152 7.02211 6.29152 7.02211C6.43828 7.01289 6.53 7.02211 6.53918 7.02211C6.88773 7.14203 7.18125 7.34497 7.39221 7.61249C7.59401 7.88 7.71325 8.19364 7.71325 8.5165Z" fill="#181725"/>
</g>
<defs>
<clipPath id="clip0_1_1296">
<rect width="6" height="7.68429" fill="white" transform="translate(3 4.07031)"/>
</clipPath>
</defs>
</svg>
