<svg width="29" height="19" viewBox="0 0 29 19" fill="none" xmlns="http://www.w3.org/2000/svg">
<path d="M18.1445 14.0005C18.9325 14.0005 19.7127 13.8453 20.4406 13.5438C21.1686 13.2423 21.83 12.8003 22.3872 12.2431C22.9443 11.686 23.3863 11.0246 23.6878 10.2966C23.9894 9.56865 24.1445 8.78843 24.1445 8.0005C24.1445 7.21257 23.9894 6.43236 23.6878 5.7044C23.3863 4.97645 22.9443 4.31501 22.3872 3.75786C21.83 3.20071 21.1686 2.75875 20.4406 2.45723C19.7127 2.1557 18.9325 2.0005 18.1445 2.0005C16.5532 2.0005 15.0271 2.63264 13.9019 3.75786C12.7767 4.88308 12.1445 6.4092 12.1445 8.0005C12.1445 9.5918 12.7767 11.1179 13.9019 12.2431C15.0271 13.3684 16.5532 14.0005 18.1445 14.0005ZM24.4645 12.9065L28.0445 16.4865C28.14 16.5788 28.2161 16.6892 28.2684 16.8113C28.3207 16.9333 28.3482 17.0645 28.3493 17.1973C28.3503 17.3301 28.3249 17.4618 28.2746 17.5846C28.2242 17.7075 28.1499 17.8191 28.0559 17.9129C27.962 18.0067 27.8503 18.0809 27.7273 18.1311C27.6044 18.1813 27.4727 18.2065 27.3399 18.2052C27.2071 18.204 27.0759 18.1763 26.954 18.1238C26.832 18.0713 26.7217 17.9951 26.6295 17.8995L23.0495 14.3195C21.442 15.5674 19.4193 16.1557 17.3933 15.9647C15.3673 15.7737 13.4902 14.8178 12.1441 13.2916C10.798 11.7653 10.0842 9.78345 10.148 7.74943C10.2117 5.7154 11.0482 3.78213 12.4872 2.34315C13.9262 0.904173 15.8594 0.0676701 17.8935 0.00392902C19.9275 -0.0598121 21.9094 0.654 23.4356 2.00005C24.9619 3.34611 25.9178 5.22322 26.1087 7.24926C26.2997 9.2753 25.7114 11.298 24.4635 12.9055L24.4645 12.9065Z" fill="#181725"/>
<rect width="8.85499" height="2.39923" rx="1.19961" fill="#181725"/>
<rect y="7.43823" width="6.46414" height="2.39923" rx="1.19961" fill="#181725"/>
<rect y="14.8767" width="8.85499" height="2.39923" rx="1.19961" fill="#181725"/>
</svg>
