<svg width="20" height="20" viewBox="0 0 20 20" fill="none" xmlns="http://www.w3.org/2000/svg">
<path d="M10 0C8.02219 0 6.08879 0.58649 4.4443 1.6853C2.79981 2.78412 1.51809 4.3459 0.761209 6.17317C0.00433284 8.00043 -0.193701 10.0111 0.192152 11.9509C0.578004 13.8907 1.53041 15.6725 2.92894 17.0711C4.32746 18.4696 6.10929 19.422 8.0491 19.8079C9.98891 20.1937 11.9996 19.9957 13.8268 19.2388C15.6541 18.4819 17.2159 17.2002 18.3147 15.5557C19.4135 13.9112 20 11.9778 20 10C20 8.68678 19.7413 7.38642 19.2388 6.17317C18.7363 4.95991 17.9997 3.85752 17.0711 2.92893C16.1425 2.00035 15.0401 1.26375 13.8268 0.761205C12.6136 0.258658 11.3132 0 10 0ZM10 18C8.41775 18 6.87104 17.5308 5.55544 16.6518C4.23985 15.7727 3.21447 14.5233 2.60897 13.0615C2.00347 11.5997 1.84504 9.99113 2.15372 8.43928C2.4624 6.88743 3.22433 5.46197 4.34315 4.34315C5.46197 3.22433 6.88743 2.4624 8.43928 2.15372C9.99113 1.84504 11.5997 2.00346 13.0615 2.60896C14.5233 3.21447 15.7727 4.23984 16.6518 5.55544C17.5308 6.87103 18 8.41775 18 10C18 12.1217 17.1572 14.1566 15.6569 15.6569C14.1566 17.1571 12.1217 18 10 18Z" fill="#181725"/>
<path d="M10.2175 4.00007C9.28927 4.00007 8.39903 4.36882 7.74266 5.02519C7.08628 5.68157 6.71753 6.57181 6.71753 7.50007C6.71753 7.76528 6.82289 8.01964 7.01042 8.20717C7.19796 8.39471 7.45231 8.50007 7.71753 8.50007C7.98275 8.50007 8.2371 8.39471 8.42464 8.20717C8.61217 8.01964 8.71753 7.76528 8.71753 7.50007C8.71753 7.2034 8.8055 6.91339 8.97032 6.66671C9.13515 6.42004 9.36942 6.22778 9.6435 6.11425C9.91759 6.00072 10.2192 5.97101 10.5102 6.02889C10.8011 6.08677 11.0684 6.22963 11.2782 6.43941C11.488 6.64919 11.6308 6.91646 11.6887 7.20743C11.7466 7.4984 11.7169 7.8 11.6033 8.07409C11.4898 8.34818 11.2976 8.58245 11.0509 8.74727C10.8042 8.91209 10.5142 9.00007 10.2175 9.00007C9.95231 9.00007 9.69796 9.10542 9.51042 9.29296C9.32289 9.4805 9.21753 9.73485 9.21753 10.0001V12.0001C9.21753 12.2653 9.32289 12.5196 9.51042 12.7072C9.69796 12.8947 9.95231 13.0001 10.2175 13.0001C10.4827 13.0001 10.7371 12.8947 10.9246 12.7072C11.1122 12.5196 11.2175 12.2653 11.2175 12.0001V10.8401C12.0256 10.6041 12.7212 10.0839 13.176 9.37551C13.6308 8.66709 13.8143 7.81814 13.6925 6.98513C13.5707 6.15213 13.1519 5.39122 12.5133 4.84266C11.8747 4.29409 11.0594 3.99484 10.2175 4.00007Z" fill="#181725"/>
<path d="M10.2175 16C10.7698 16 11.2175 15.5523 11.2175 15C11.2175 14.4477 10.7698 14 10.2175 14C9.66524 14 9.21753 14.4477 9.21753 15C9.21753 15.5523 9.66524 16 10.2175 16Z" fill="#181725"/>
</svg>
