<svg width="16" height="19" viewBox="0 0 16 19" fill="none" xmlns="http://www.w3.org/2000/svg">
<path d="M7.47781 18.1659C7.34362 18.164 7.21116 18.1356 7.08817 18.0819C6.96513 18.0282 6.85364 17.9506 6.76102 17.8534L2.15945 13.0897C0.757951 11.6221 -0.0166819 9.66584 0.000275579 7.6366C0.0173284 5.60744 0.824473 3.66449 2.25028 2.22058C2.95252 1.50367 3.79381 0.937207 4.72196 0.555541C5.65007 0.173942 6.64631 -0.0146835 7.64969 0.000853838C8.64632 0.00937787 9.63116 0.217102 10.5462 0.612182C11.4613 1.00735 12.2882 1.58193 12.9778 2.30164C14.378 3.77057 15.151 5.72742 15.1321 7.75671C15.1132 9.78596 14.3045 11.7281 12.8772 13.1708L8.19461 17.8632C8.10336 17.9614 7.99195 18.0395 7.86844 18.0917C7.74498 18.1438 7.61179 18.1689 7.47781 18.1659ZM7.48758 10.3104C8.83648 10.3104 9.92974 9.21689 9.92996 7.86804C9.92996 6.519 8.83662 5.42468 7.48758 5.42468C6.1386 5.42475 5.0452 6.51905 5.0452 7.86804C5.04542 9.21685 6.13874 10.3104 7.48758 10.3104Z" fill="#4C4F4D"/>
</svg>
