<svg width="48" height="56" viewBox="0 0 48 56" fill="none" xmlns="http://www.w3.org/2000/svg">
<path fill-rule="evenodd" clip-rule="evenodd" d="M32.5357 4.32688C32.7746 2.19323 31.2619 0.266583 29.1283 0.0277415C26.9946 -0.227022 25.068 1.30156 24.8291 3.43521C24.5425 5.87139 24.9406 8.78525 25.4501 11.7787C26.8672 12.2086 28.2366 12.8296 29.5104 13.5621C30.8798 10.3298 32.2173 7.12928 32.5357 4.32688ZM47.519 13.6895C46.6751 11.715 44.3822 10.8234 42.4078 11.6673C39.8124 12.7978 37.1215 15.011 34.4146 17.288C35.4337 18.2911 36.389 19.4216 37.2011 20.6477C40.2742 20.2655 43.2199 19.8038 45.4968 18.8166C47.4713 17.9408 48.3788 15.6479 47.519 13.6895ZM40.9748 3.27598C39.2551 2.00216 36.8189 2.35246 35.5451 4.07212C33.6025 6.68345 32.2969 10.5845 30.8798 14.39C31.3574 14.7085 31.8033 15.027 32.2332 15.3613C32.5516 15.6161 32.886 15.8868 33.2204 16.1575C36.4686 13.7054 39.8443 11.317 41.7868 8.70563C43.0607 6.98598 42.6944 4.5498 40.9748 3.27598Z" fill="#53B175"/>
<path d="M33.5867 34.4527C32.3925 35.7425 31.1187 36.9367 29.7653 38.099C27.8705 39.7391 25.9438 41.3313 23.9853 42.8599C21.8835 41.5702 20.3709 40.9173 20.1161 41.2517C19.8932 41.5543 20.7689 42.6688 22.3453 44.1178C17.0589 48.0507 11.47 51.5219 5.46717 54.3721C4.52773 54.8179 3.54052 55.1363 2.56924 55.4866C2.31447 55.5822 2.04379 55.5822 1.93233 55.5981C0.403743 55.7733 -0.0580161 55.3593 0.00567489 53.9581C0.196748 49.5952 1.55018 45.5031 2.95138 41.4269C3.33353 40.3123 3.7316 39.1977 4.14559 38.0831C6.26331 39.3728 7.77597 40.0416 8.03074 39.7072C8.30142 39.341 7.0276 37.8761 4.89396 36.045C6.42254 32.0961 8.12627 28.211 10.1325 24.4851C14.1451 27.4626 17.7118 29.4211 18.1098 28.8798C18.5079 28.3384 15.5622 25.4564 11.5019 22.447L11.3267 22.3196C12.0273 21.1254 12.7598 19.9312 13.54 18.7688C14.5113 17.3039 15.7055 15.9664 16.8838 14.6608C18.4601 12.9252 20.4982 12.336 22.7752 12.8456C30.0678 14.4697 35.1312 18.6574 37.5196 25.8385C37.9973 27.3034 37.5674 28.7365 36.819 30.058C36.3095 30.9497 35.7522 31.7936 35.1312 32.5898C31.2779 29.7714 27.9342 27.9562 27.552 28.4658C27.1858 28.9753 29.8449 31.6025 33.5867 34.4527Z" fill="#F3603F"/>
</svg>
