<svg width="18" height="20" viewBox="0 0 18 20" fill="none" xmlns="http://www.w3.org/2000/svg">
<path d="M17.5097 13.2069L15.7098 11.397V6.93728C15.7338 5.2812 15.1577 3.67239 14.0881 2.40789C13.0184 1.14339 11.5273 0.308613 9.8902 0.0576935C8.94007 -0.0674318 7.97418 0.0115112 7.05697 0.289255C6.13977 0.566999 5.29235 1.03716 4.57124 1.66836C3.85014 2.29956 3.27194 3.07729 2.87523 3.94965C2.47852 4.82202 2.27241 5.76896 2.27066 6.72729V11.397L0.470767 13.2069C0.244687 13.4368 0.0913738 13.7281 0.0299942 14.0446C-0.0313854 14.3612 0.0018919 14.6887 0.125666 14.9864C0.24944 15.2841 0.458219 15.5387 0.725903 15.7184C0.993587 15.8981 1.3083 15.9949 1.6307 15.9967H4.99049V16.3367C5.0372 17.3519 5.48442 18.3071 6.23415 18.9931C6.98387 19.6791 7.97497 20.0399 8.99025 19.9965C10.0055 20.0399 10.9966 19.6791 11.7464 18.9931C12.4961 18.3071 12.9433 17.3519 12.99 16.3367V15.9967H16.3498C16.6722 15.9949 16.9869 15.8981 17.2546 15.7184C17.5223 15.5387 17.7311 15.2841 17.8548 14.9864C17.9786 14.6887 18.0119 14.3612 17.9505 14.0446C17.8891 13.7281 17.7358 13.4368 17.5097 13.2069ZM10.9901 16.3367C10.9347 16.8177 10.6958 17.2587 10.3232 17.5679C9.9507 17.8771 9.47321 18.0307 8.99025 17.9966C8.5073 18.0307 8.02981 17.8771 7.65726 17.5679C7.28471 17.2587 7.04583 16.8177 6.99037 16.3367V15.9967H10.9901V16.3367ZM2.50064 13.9969L3.68057 12.8169C3.86773 12.6309 4.01622 12.4096 4.11747 12.1659C4.21872 11.9222 4.27075 11.6609 4.27054 11.397V6.72729C4.27108 6.05273 4.41591 5.3861 4.69531 4.77212C4.9747 4.15814 5.38219 3.61103 5.89044 3.16751C6.39183 2.71322 6.98595 2.3733 7.63168 2.1713C8.2774 1.96929 8.95932 1.91002 9.63021 1.99758C10.7866 2.18534 11.8363 2.78454 12.5859 3.68485C13.3356 4.58517 13.7348 5.72599 13.71 6.89728V11.397C13.7084 11.6602 13.7589 11.9211 13.8584 12.1648C13.9579 12.4084 14.1046 12.6301 14.2899 12.8169L15.4799 13.9969H2.50064Z" fill="#181725"/>
</svg>
