<svg width="66" height="66" viewBox="0 0 66 66" fill="none" xmlns="http://www.w3.org/2000/svg">
<circle cx="33" cy="33" r="33" fill="#EBFFD7"/>
<path d="M53.865 28.5297C53.865 28.5297 49.931 23.2744 49.9286 23.2714C49.9276 23.27 49.8418 23.1177 49.5775 23.0336L33.1841 18.4046C33.0636 18.3707 32.9363 18.3707 32.8158 18.4046L16.4224 23.0336C16.4224 23.0336 16.1986 23.0982 16.0641 23.2797C16.0103 23.3524 12.1351 28.5297 12.1351 28.5297C12.0051 28.7035 11.9661 28.929 12.0303 29.1363C12.0946 29.3436 12.2543 29.5075 12.4598 29.5773L15.9291 30.7547V40.1695C15.9291 40.4438 16.0943 40.6908 16.3478 40.7955L32.7413 47.5697C32.7901 47.5899 32.8518 47.6212 33 47.6212C33.1481 47.6212 33.2586 47.5697 33.2586 47.5697L49.6522 40.7955C49.9057 40.6908 50.0709 40.4437 50.0709 40.1695V30.7545L53.5402 29.5771C53.7456 29.5074 53.9053 29.3433 53.9696 29.1361C54.0338 28.929 53.9948 28.7035 53.865 28.5297ZM13.7791 28.5942L16.872 24.4614L18.1229 24.806L25.1632 26.7453L31.8211 28.5794L27.9163 33.3922L13.7791 28.5942ZM32.3226 45.9306L17.2839 39.7164V31.2143L27.9276 34.8271C27.9989 34.8514 28.0723 34.8629 28.1452 34.8629C28.3454 34.8629 28.5401 34.774 28.6712 34.6122L32.3227 30.1118L32.3226 45.9306ZM33 27.4992L19.1279 23.6776L33 19.7604L46.8721 23.6776L33 27.4992ZM48.7161 39.7164L33.6773 45.9306V30.112L37.3288 34.6124C37.4599 34.774 37.6546 34.8631 37.8548 34.8631C37.9277 34.8631 38.0011 34.8516 38.0725 34.8272L48.7161 31.2145V39.7164ZM38.0837 33.3923L34.1789 28.5796L49.128 24.4614L52.221 28.5942L38.0837 33.3923Z" fill="#28B446"/>
</svg>
