<svg width="20" height="14" viewBox="0 0 20 14" fill="none" xmlns="http://www.w3.org/2000/svg">
<path d="M18 3.84215V1.92107H2V3.84215H18ZM18 5.76322H2V11.5264H18V5.76322ZM2 0H18C18.5304 0 19.0391 0.202398 19.4142 0.562669C19.7893 0.92294 20 1.41157 20 1.92107V11.5264C20 12.0359 19.7893 12.5246 19.4142 12.8848C19.0391 13.2451 18.5304 13.4475 18 13.4475H2C1.46957 13.4475 0.960859 13.2451 0.585786 12.8848C0.210714 12.5246 0 12.0359 0 11.5264V1.92107C0 1.41157 0.210714 0.92294 0.585786 0.562669C0.960859 0.202398 1.46957 0 2 0ZM4 7.68429H5C5.26522 7.68429 5.51957 7.78549 5.70711 7.96563C5.89464 8.14576 6 8.39008 6 8.64483C6 8.89958 5.89464 9.14389 5.70711 9.32403C5.51957 9.50416 5.26522 9.60536 5 9.60536H4C3.73478 9.60536 3.48043 9.50416 3.29289 9.32403C3.10536 9.14389 3 8.89958 3 8.64483C3 8.39008 3.10536 8.14576 3.29289 7.96563C3.48043 7.78549 3.73478 7.68429 4 7.68429ZM9 7.68429H14C14.2652 7.68429 14.5196 7.78549 14.7071 7.96563C14.8946 8.14576 15 8.39008 15 8.64483C15 8.89958 14.8946 9.14389 14.7071 9.32403C14.5196 9.50416 14.2652 9.60536 14 9.60536H9C8.73478 9.60536 8.48043 9.50416 8.29289 9.32403C8.10536 9.14389 8 8.89958 8 8.64483C8 8.39008 8.10536 8.14576 8.29289 7.96563C8.48043 7.78549 8.73478 7.68429 9 7.68429Z" fill="#181725"/>
</svg>
