<svg width="23" height="22" viewBox="0 0 23 22" fill="none" xmlns="http://www.w3.org/2000/svg">
<path d="M13.6928 0.351887C13.9778 0.0783408 14.4403 0.0782861 14.7253 0.351887L16.9009 2.44159C17.1858 2.7153 17.1857 3.15951 16.9009 3.43333C16.2858 4.02408 16.286 4.98563 16.9009 5.57647C17.516 6.1673 18.517 6.16727 19.1321 5.57647C19.417 5.30294 19.8795 5.30291 20.1645 5.57647L22.3401 7.66617C22.6251 7.93989 22.625 8.3841 22.3401 8.65792L9.0135 21.4586C8.72847 21.7322 8.26602 21.7324 7.98101 21.4586L5.80546 19.3689C5.52065 19.0951 5.52066 18.6509 5.80546 18.3772C6.42056 17.7863 6.42056 16.8248 5.80546 16.234C5.19034 15.6434 4.18925 15.6433 3.57426 16.234C3.28923 16.5076 2.82678 16.5078 2.54177 16.234L0.366218 14.1443C0.0813672 13.8705 0.0814045 13.4263 0.366218 13.1526L13.6928 0.351887ZM3.12281 14.8086C4.29021 14.1326 5.83136 14.2756 6.83795 15.2423C7.8445 16.2091 7.9931 17.6894 7.2894 18.8108L8.49796 19.9717L11.4095 17.175L10.2939 16.1034C10.009 15.8298 10.0085 15.3862 10.2932 15.1124C10.5782 14.8386 11.0406 14.8386 11.3257 15.1124L12.4413 16.1839L20.7921 8.16272L19.5835 7.00185C18.416 7.67783 16.8749 7.53505 15.8684 6.56822C14.862 5.60133 14.7131 4.12105 15.4169 2.9997L14.2091 1.8395L5.85828 9.86073L6.97388 10.9323C7.2589 11.2061 7.2589 11.6503 6.97388 11.924C6.68883 12.1975 6.22705 12.1971 5.94209 11.9234L4.82649 10.8518L1.91495 13.6484L3.12281 14.8086Z" fill="#181725" stroke="#181725" stroke-width="0.3"/>
<path d="M7.57325 12.4995C7.85821 12.2258 8.3208 12.2258 8.60574 12.4995L9.69317 13.544C9.97812 13.8177 9.97812 14.262 9.69317 14.5357C9.40821 14.8094 8.94565 14.8095 8.66067 14.5357L7.57325 13.4912C7.28834 13.2175 7.2883 12.7732 7.57325 12.4995Z" fill="#181725" stroke="#181725" stroke-width="0.3"/>
</svg>
