<svg width="268" height="69" viewBox="0 0 268 69" fill="none" xmlns="http://www.w3.org/2000/svg">
<path fill-rule="evenodd" clip-rule="evenodd" d="M37.1989 4.94701C37.4719 2.50757 35.7425 0.304789 33.3031 0.0317174C30.8636 -0.259559 28.6608 1.4881 28.3878 3.92754C28.0601 6.71287 28.5152 10.0443 29.0977 13.4668C30.718 13.9584 32.2836 14.6684 33.74 15.5058C35.3056 11.8102 36.8348 8.15105 37.1989 4.94701ZM54.3296 15.6514C53.3647 13.394 50.7432 12.3746 48.4858 13.3394C45.5185 14.632 42.4419 17.1624 39.347 19.7657C40.5121 20.9126 41.6044 22.2051 42.5329 23.6069C46.0464 23.17 49.4143 22.6421 52.0176 21.5134C54.275 20.5121 55.3126 17.8906 54.3296 15.6514ZM46.8474 3.74549C44.8813 2.28911 42.096 2.68961 40.6396 4.65573C38.4186 7.64131 36.9258 12.1015 35.3056 16.4524C35.8517 16.8165 36.3615 17.1806 36.853 17.5629C37.2171 17.8542 37.5994 18.1637 37.9817 18.4732C41.6955 15.6696 45.5549 12.9389 47.7759 9.95332C49.2322 7.98721 48.8135 5.20187 46.8474 3.74549Z" fill="white"/>
<path d="M38.4004 39.3905C37.035 40.865 35.5786 42.2304 34.0312 43.5594C31.8649 45.4344 29.6621 47.2549 27.4229 49.0026C25.0199 47.528 23.2904 46.7816 22.9991 47.1639C22.7443 47.5098 23.7455 48.7841 25.5478 50.4408C19.5038 54.9373 13.1139 58.906 6.25073 62.1646C5.17665 62.6744 4.04795 63.0385 2.93746 63.439C2.64618 63.5482 2.3367 63.5482 2.20927 63.5664C0.461608 63.7667 -0.0663309 63.2933 0.00648821 61.6913C0.224946 56.7032 1.77235 52.0246 3.37437 47.3642C3.81129 46.0898 4.26641 44.8155 4.73973 43.5411C7.16097 45.0157 8.89042 45.7803 9.1817 45.398C9.49118 44.9793 8.0348 43.3045 5.59536 41.2109C7.34301 36.6961 9.29093 32.2542 11.5847 27.9943C16.1723 31.3986 20.2502 33.6377 20.7053 33.0188C21.1604 32.3998 17.7926 29.1048 13.1503 25.6641L12.9501 25.5184C13.7511 24.1531 14.5885 22.7877 15.4806 21.4587C16.591 19.7839 17.9564 18.2547 19.3036 16.7619C21.1058 14.7776 23.436 14.104 26.0393 14.6866C34.3771 16.5435 40.1662 21.3313 42.897 29.5417C43.4431 31.2165 42.9516 32.8549 42.0959 34.3659C41.5134 35.3854 40.8762 36.3503 40.1662 37.2605C35.7607 34.0383 31.9377 31.9629 31.5008 32.5455C31.082 33.128 34.1222 36.1318 38.4004 39.3905Z" fill="white"/>
<path d="M92.1044 9.70728C86.3335 9.70728 82.5833 12.0193 80.3077 16.4066H80.1803V13.6759C80.1803 11.7098 78.5783 10.126 76.6122 10.126C74.646 10.126 73.0622 11.7098 73.0622 13.6759V43.8776C73.0622 45.8438 74.646 47.4458 76.6122 47.4458H76.958C78.9242 47.4458 80.5262 45.8438 80.5262 43.8776V25.8913C80.5262 20.0112 83.8941 16.0972 89.5193 16.0972C94.9808 16.0972 97.6023 19.2648 97.6023 24.9265V43.8776C97.6023 45.8438 99.1861 47.4458 101.152 47.4458H101.498C103.464 47.4458 105.048 45.8438 105.048 43.8776V23.5247C105.048 14.932 100.351 9.70728 92.1044 9.70728Z" fill="white"/>
<path d="M128.077 9.63446C117.646 9.63446 110.837 17.2441 110.837 28.9133C110.837 40.6008 117.573 47.8827 128.387 47.8827C135.086 47.8827 140.62 44.9153 143.114 40.2913C144.043 38.5983 142.768 36.5047 140.839 36.5047H138.945C137.999 36.5047 137.179 37.0509 136.688 37.8701C135.25 40.3459 132.228 41.8387 128.532 41.8387C122.415 41.8387 118.356 37.5788 118.356 31.1161V30.6792H142.204C143.624 30.6792 144.789 29.5141 144.789 28.0941V28.0577C144.789 16.7525 138.326 9.63446 128.077 9.63446ZM118.392 25.3816C118.811 19.6471 122.688 15.7149 128.059 15.7149C133.484 15.7149 137.161 19.5743 137.325 25.3816H118.392Z" fill="white"/>
<path d="M179.506 34.9027H177.521C176.447 34.9027 175.519 35.5763 175.118 36.5775C173.826 39.8726 170.877 41.6385 166.689 41.6385C160.7 41.6385 156.659 36.8142 156.659 28.7859C156.659 20.9396 160.645 15.9333 166.653 15.9333C170.986 15.9333 173.88 18.0815 175.064 21.1399C175.464 22.1593 176.393 22.8693 177.503 22.8693H179.487C181.217 22.8693 182.509 21.1763 181.945 19.5379C180.034 13.9126 174.572 9.63446 166.58 9.63446C156.04 9.63446 149.085 17.1712 149.085 28.7859C149.085 40.6008 156.058 47.8827 166.653 47.8827C174.244 47.8827 179.888 44.1689 181.963 38.2888C182.546 36.6321 181.271 34.9027 179.506 34.9027Z" fill="white"/>
<path d="M201.861 41.5838C201.734 41.5656 201.588 41.5474 201.461 41.5474C199.003 41.2562 197.856 39.727 197.856 36.8506V16.0061H202.061C203.7 16.0061 205.01 14.6772 205.01 13.057C205.01 11.4367 203.7 10.126 202.061 10.126H197.856V5.44736C197.856 4.42789 197.437 3.49945 196.764 2.82587C196.09 2.15229 195.18 1.73358 194.142 1.73358C192.103 1.73358 190.447 3.40842 190.447 5.44736V10.126H188.226C186.605 10.126 185.276 11.4367 185.276 13.057C185.276 14.6772 186.605 16.0061 188.226 16.0061H190.447V37.6152C190.447 44.8243 193.323 47.6825 200.787 47.6825C200.805 47.6825 200.823 47.6825 200.823 47.6825C201.679 47.6825 202.462 47.4276 203.117 46.9725C203.135 46.9725 203.154 46.9543 203.154 46.9543C203.918 46.4081 204.428 45.5161 204.428 44.5148C204.428 43.022 203.317 41.7659 201.861 41.5838Z" fill="white"/>
<path d="M226.073 9.63446C220.248 9.63446 215.442 12.0011 212.984 15.6602C212.584 16.2792 212.383 16.9528 212.383 17.6082C212.383 19.4286 213.84 21.1217 215.897 21.1217C217.098 21.1217 218.245 20.4845 218.81 19.4286C220.011 17.1712 222.578 15.7877 225.873 15.7877C230.861 15.7877 233.701 18.1361 233.701 22.396V22.8511C233.701 24.2165 232.645 25.3452 231.28 25.418L223.634 25.8549C214.422 26.4375 209.38 30.2241 209.38 36.7596C209.38 43.4225 214.532 47.8099 221.996 47.8099C227.075 47.8099 231.717 45.2794 233.774 41.2198H233.938V43.8777C233.938 44.8607 234.338 45.7527 234.976 46.4081C235.631 47.0453 236.523 47.4458 237.506 47.4458C239.472 47.4458 241.056 45.8438 241.056 43.8777V21.8499C241.056 14.4587 235.176 9.63446 226.073 9.63446ZM233.701 33.4281C233.701 38.3252 229.514 41.8751 223.98 41.8751C219.684 41.8751 216.898 39.818 216.898 36.6139C216.898 33.3189 219.556 31.4256 224.635 31.1161L233.701 30.4971V33.4281Z" fill="white"/>
<path d="M264.813 9.74368C260.408 9.74368 256.985 12.2559 255.802 16.4066H255.674V13.6759C255.674 11.7098 254.072 10.126 252.124 10.126C250.158 10.126 248.556 11.7098 248.556 13.6759V43.7138C248.556 44.7333 248.975 45.6799 249.649 46.3535C250.322 47.0271 251.251 47.4458 252.288 47.4458C254.345 47.4458 256.02 45.7709 256.02 43.7138V25.1813C256.02 19.9202 259.115 16.5159 264.03 16.5159C264.231 16.5159 264.449 16.5159 264.649 16.5341C266.179 16.5887 267.416 15.3326 267.416 13.8033V12.3652C267.416 10.927 266.251 9.74368 264.813 9.74368Z" fill="white"/>
<path d="M204.428 44.5148C204.428 45.5161 203.918 46.4081 203.154 46.9542C203.154 46.9542 203.135 46.9724 203.117 46.9724C202.644 47.3001 202.08 47.4822 201.461 47.4822C199.804 47.4822 198.475 46.1532 198.475 44.5148C198.475 42.8764 199.804 41.5474 201.461 41.5474C201.588 41.5474 201.734 41.5656 201.861 41.5838C203.317 41.7659 204.428 43.022 204.428 44.5148Z" fill="white"/>
<path d="M77.4142 64.7776C76.7236 64.7776 76.1029 64.619 75.5522 64.3016C75.0016 63.975 74.5676 63.527 74.2502 62.9576C73.9422 62.379 73.7882 61.7163 73.7882 60.9696C73.7882 60.1856 73.9469 59.509 74.2642 58.9396C74.5816 58.3703 75.0156 57.9316 75.5662 57.6236C76.1169 57.3156 76.7329 57.1616 77.4142 57.1616C78.0956 57.1616 78.7069 57.3156 79.2482 57.6236C79.7989 57.9316 80.2329 58.3703 80.5502 58.9396C80.8769 59.4996 81.0402 60.167 81.0402 60.9416C81.0402 61.7163 80.8816 62.393 80.5642 62.9716C80.2469 63.541 79.8129 63.9843 79.2622 64.3016C78.7209 64.619 78.1049 64.7776 77.4142 64.7776ZM77.4142 63.6576C78.1516 63.6576 78.7256 63.4103 79.1362 62.9156C79.5469 62.4116 79.7522 61.763 79.7522 60.9696C79.7522 60.4843 79.6496 60.041 79.4442 59.6396C79.2389 59.229 78.9589 58.9023 78.6042 58.6596C78.2589 58.4076 77.8622 58.2816 77.4142 58.2816C76.6769 58.2816 76.1029 58.5243 75.6922 59.0096C75.2816 59.495 75.0762 60.139 75.0762 60.9416C75.0762 61.427 75.1789 61.8796 75.3842 62.2996C75.5896 62.7103 75.8649 63.0416 76.2102 63.2936C76.5649 63.5363 76.9662 63.6576 77.4142 63.6576ZM88.2154 64.6096V57.3296H89.4334V58.5476C89.6948 58.1556 90.0261 57.829 90.4274 57.5676C90.8381 57.297 91.3234 57.1616 91.8834 57.1616C92.7048 57.1616 93.3161 57.409 93.7174 57.9036C94.1281 58.3983 94.3334 59.0516 94.3334 59.8636V64.6096H93.0734V60.0036C93.0734 59.481 92.9474 59.061 92.6954 58.7436C92.4528 58.4263 92.1121 58.2676 91.6734 58.2676C91.2441 58.2676 90.8381 58.4216 90.4554 58.7296C90.0728 59.0283 89.7461 59.383 89.4754 59.7936V64.6096H88.2154ZM104.213 64.7776C103.783 64.7776 103.396 64.6983 103.051 64.5396C102.705 64.3716 102.43 64.1056 102.225 63.7416C102.029 63.3776 101.931 62.9063 101.931 62.3276V54.2496H103.191V62.2016C103.191 62.7056 103.293 63.079 103.499 63.3216C103.713 63.5643 104.007 63.6856 104.381 63.6856C104.558 63.6856 104.731 63.667 104.899 63.6296C105.076 63.583 105.225 63.5316 105.347 63.4756L105.655 64.4976C105.487 64.5723 105.277 64.6376 105.025 64.6936C104.782 64.7496 104.511 64.7776 104.213 64.7776ZM112.34 64.6096V57.3296H113.6V64.6096H112.34ZM112.97 56.0836C112.728 56.0836 112.518 55.995 112.34 55.8176C112.172 55.6403 112.088 55.435 112.088 55.2016C112.088 54.931 112.168 54.7163 112.326 54.5576C112.485 54.399 112.7 54.3196 112.97 54.3196C113.213 54.3196 113.418 54.4083 113.586 54.5856C113.764 54.7536 113.852 54.959 113.852 55.2016C113.852 55.463 113.773 55.6776 113.614 55.8456C113.456 56.0043 113.241 56.0836 112.97 56.0836ZM121.34 64.6096V57.3296H122.558V58.5476C122.82 58.1556 123.151 57.829 123.552 57.5676C123.963 57.297 124.448 57.1616 125.008 57.1616C125.83 57.1616 126.441 57.409 126.842 57.9036C127.253 58.3983 127.458 59.0516 127.458 59.8636V64.6096H126.198V60.0036C126.198 59.481 126.072 59.061 125.82 58.7436C125.578 58.4263 125.237 58.2676 124.798 58.2676C124.369 58.2676 123.963 58.4216 123.58 58.7296C123.198 59.0283 122.871 59.383 122.6 59.7936V64.6096H121.34ZM138.038 64.7776C136.992 64.7776 136.162 64.4463 135.546 63.7836C134.939 63.1116 134.636 62.1736 134.636 60.9696C134.636 60.2416 134.771 59.593 135.042 59.0236C135.322 58.445 135.709 57.9923 136.204 57.6656C136.698 57.3296 137.272 57.1616 137.926 57.1616C138.626 57.1616 139.204 57.3156 139.662 57.6236C140.128 57.9223 140.478 58.3283 140.712 58.8416C140.945 59.355 141.062 59.9196 141.062 60.5356C141.062 60.8623 141.048 61.1796 141.02 61.4876H135.924C136.008 62.169 136.246 62.701 136.638 63.0836C137.03 63.4663 137.548 63.6576 138.192 63.6576C138.612 63.6576 138.99 63.6156 139.326 63.5316C139.662 63.4383 139.984 63.3216 140.292 63.1816L140.586 64.2596C140.25 64.409 139.872 64.5303 139.452 64.6236C139.032 64.7263 138.56 64.7776 138.038 64.7776ZM135.91 60.4656H139.9C139.9 59.7563 139.722 59.2103 139.368 58.8276C139.013 58.445 138.523 58.2536 137.898 58.2536C137.356 58.2536 136.908 58.445 136.554 58.8276C136.199 59.201 135.984 59.747 135.91 60.4656ZM160.612 67.8576C160.183 67.8576 159.763 67.8063 159.352 67.7036C158.951 67.601 158.591 67.447 158.274 67.2416L158.736 66.1496C158.96 66.327 159.221 66.4716 159.52 66.5836C159.819 66.705 160.183 66.7656 160.612 66.7656C161.275 66.7656 161.793 66.5883 162.166 66.2336C162.549 65.8883 162.74 65.333 162.74 64.5676V63.6716C162.553 63.8956 162.283 64.1103 161.928 64.3156C161.583 64.5116 161.167 64.6096 160.682 64.6096C160.131 64.6096 159.609 64.4696 159.114 64.1896C158.619 63.9003 158.218 63.4803 157.91 62.9296C157.602 62.379 157.448 61.7163 157.448 60.9416C157.448 60.2136 157.597 59.565 157.896 58.9956C158.204 58.4263 158.615 57.9783 159.128 57.6516C159.641 57.325 160.206 57.1616 160.822 57.1616C161.233 57.1616 161.606 57.2316 161.942 57.3716C162.278 57.5116 162.567 57.6843 162.81 57.8896V57.3296H163.958V64.4416C163.958 65.2443 163.818 65.8976 163.538 66.4016C163.258 66.9056 162.866 67.2743 162.362 67.5076C161.867 67.741 161.284 67.8576 160.612 67.8576ZM160.962 63.4896C161.335 63.4896 161.671 63.4056 161.97 63.2376C162.269 63.0696 162.511 62.8736 162.698 62.6496V58.8416C162.493 58.6923 162.245 58.557 161.956 58.4356C161.667 58.3143 161.331 58.2536 160.948 58.2536C160.565 58.2536 160.206 58.3563 159.87 58.5616C159.534 58.767 159.259 59.0656 159.044 59.4576C158.839 59.8403 158.736 60.3116 158.736 60.8716C158.736 61.4036 158.839 61.8656 159.044 62.2576C159.259 62.6496 159.534 62.953 159.87 63.1676C160.206 63.3823 160.57 63.4896 160.962 63.4896ZM171.628 64.6096V57.3296H172.846V58.9116C172.967 58.6036 173.13 58.319 173.336 58.0576C173.541 57.787 173.798 57.5723 174.106 57.4136C174.414 57.2456 174.773 57.1616 175.184 57.1616C175.324 57.1616 175.464 57.171 175.604 57.1896C175.744 57.199 175.86 57.2176 175.954 57.2456L175.576 58.5476C175.398 58.473 175.188 58.4356 174.946 58.4356C174.6 58.4356 174.269 58.5336 173.952 58.7296C173.644 58.9256 173.387 59.229 173.182 59.6396C172.986 60.0503 172.888 60.573 172.888 61.2076V64.6096H171.628ZM185.362 64.7776C184.671 64.7776 184.05 64.619 183.5 64.3016C182.949 63.975 182.515 63.527 182.198 62.9576C181.89 62.379 181.736 61.7163 181.736 60.9696C181.736 60.1856 181.894 59.509 182.212 58.9396C182.529 58.3703 182.963 57.9316 183.514 57.6236C184.064 57.3156 184.68 57.1616 185.362 57.1616C186.043 57.1616 186.654 57.3156 187.196 57.6236C187.746 57.9316 188.18 58.3703 188.498 58.9396C188.824 59.4996 188.988 60.167 188.988 60.9416C188.988 61.7163 188.829 62.393 188.512 62.9716C188.194 63.541 187.76 63.9843 187.21 64.3016C186.668 64.619 186.052 64.7776 185.362 64.7776ZM185.362 63.6576C186.099 63.6576 186.673 63.4103 187.084 62.9156C187.494 62.4116 187.7 61.763 187.7 60.9696C187.7 60.4843 187.597 60.041 187.392 59.6396C187.186 59.229 186.906 58.9023 186.552 58.6596C186.206 58.4076 185.81 58.2816 185.362 58.2816C184.624 58.2816 184.05 58.5243 183.64 59.0096C183.229 59.495 183.024 60.139 183.024 60.9416C183.024 61.427 183.126 61.8796 183.332 62.2996C183.537 62.7103 183.812 63.0416 184.158 63.2936C184.512 63.5363 184.914 63.6576 185.362 63.6576ZM199.103 64.7776C198.412 64.7776 197.805 64.619 197.283 64.3016C196.769 63.975 196.373 63.527 196.093 62.9576C195.813 62.379 195.673 61.7163 195.673 60.9696C195.673 60.2696 195.813 59.6303 196.093 59.0516C196.382 58.473 196.793 58.0156 197.325 57.6796C197.857 57.3343 198.482 57.1616 199.201 57.1616C199.611 57.1616 199.971 57.199 200.279 57.2736C200.596 57.3483 200.899 57.4556 201.189 57.5956L200.811 58.6596C200.549 58.529 200.297 58.4356 200.055 58.3796C199.821 58.3143 199.56 58.2816 199.271 58.2816C198.617 58.2816 198.067 58.5196 197.619 58.9956C197.18 59.4623 196.961 60.111 196.961 60.9416C196.961 61.4456 197.054 61.903 197.241 62.3136C197.427 62.7243 197.684 63.051 198.011 63.2936C198.347 63.5363 198.739 63.6576 199.187 63.6576C199.541 63.6576 199.845 63.6203 200.097 63.5456C200.349 63.4616 200.619 63.345 200.909 63.1956L201.301 64.2596C201.011 64.4183 200.685 64.5443 200.321 64.6376C199.966 64.731 199.56 64.7776 199.103 64.7776ZM211.041 64.7776C209.996 64.7776 209.165 64.4463 208.549 63.7836C207.943 63.1116 207.639 62.1736 207.639 60.9696C207.639 60.2416 207.775 59.593 208.045 59.0236C208.325 58.445 208.713 57.9923 209.207 57.6656C209.702 57.3296 210.276 57.1616 210.929 57.1616C211.629 57.1616 212.208 57.3156 212.665 57.6236C213.132 57.9223 213.482 58.3283 213.715 58.8416C213.949 59.355 214.065 59.9196 214.065 60.5356C214.065 60.8623 214.051 61.1796 214.023 61.4876H208.927C209.011 62.169 209.249 62.701 209.641 63.0836C210.033 63.4663 210.551 63.6576 211.195 63.6576C211.615 63.6576 211.993 63.6156 212.329 63.5316C212.665 63.4383 212.987 63.3216 213.295 63.1816L213.589 64.2596C213.253 64.409 212.875 64.5303 212.455 64.6236C212.035 64.7263 211.564 64.7776 211.041 64.7776ZM208.913 60.4656H212.903C212.903 59.7563 212.726 59.2103 212.371 58.8276C212.017 58.445 211.527 58.2536 210.901 58.2536C210.36 58.2536 209.912 58.445 209.557 58.8276C209.203 59.201 208.988 59.747 208.913 60.4656ZM221.245 64.6096V57.3296H222.463V58.9116C222.584 58.6036 222.747 58.319 222.953 58.0576C223.158 57.787 223.415 57.5723 223.723 57.4136C224.031 57.2456 224.39 57.1616 224.801 57.1616C224.941 57.1616 225.081 57.171 225.221 57.1896C225.361 57.199 225.477 57.2176 225.571 57.2456L225.193 58.5476C225.015 58.473 224.805 58.4356 224.563 58.4356C224.217 58.4356 223.886 58.5336 223.569 58.7296C223.261 58.9256 223.004 59.229 222.799 59.6396C222.603 60.0503 222.505 60.573 222.505 61.2076V64.6096H221.245ZM232.337 64.6096V57.3296H233.597V64.6096H232.337ZM232.967 56.0836C232.724 56.0836 232.514 55.995 232.337 55.8176C232.169 55.6403 232.085 55.435 232.085 55.2016C232.085 54.931 232.164 54.7163 232.323 54.5576C232.481 54.399 232.696 54.3196 232.967 54.3196C233.209 54.3196 233.415 54.4083 233.583 54.5856C233.76 54.7536 233.849 54.959 233.849 55.2016C233.849 55.463 233.769 55.6776 233.611 55.8456C233.452 56.0043 233.237 56.0836 232.967 56.0836ZM244.249 64.7776C243.203 64.7776 242.373 64.4463 241.757 63.7836C241.15 63.1116 240.847 62.1736 240.847 60.9696C240.847 60.2416 240.982 59.593 241.253 59.0236C241.533 58.445 241.92 57.9923 242.415 57.6656C242.909 57.3296 243.483 57.1616 244.137 57.1616C244.837 57.1616 245.415 57.3156 245.873 57.6236C246.339 57.9223 246.689 58.3283 246.923 58.8416C247.156 59.355 247.273 59.9196 247.273 60.5356C247.273 60.8623 247.259 61.1796 247.231 61.4876H242.135C242.219 62.169 242.457 62.701 242.849 63.0836C243.241 63.4663 243.759 63.6576 244.403 63.6576C244.823 63.6576 245.201 63.6156 245.537 63.5316C245.873 63.4383 246.195 63.3216 246.503 63.1816L246.797 64.2596C246.461 64.409 246.083 64.5303 245.663 64.6236C245.243 64.7263 244.771 64.7776 244.249 64.7776ZM242.121 60.4656H246.111C246.111 59.7563 245.933 59.2103 245.579 58.8276C245.224 58.445 244.734 58.2536 244.109 58.2536C243.567 58.2536 243.119 58.445 242.765 58.8276C242.41 59.201 242.195 59.747 242.121 60.4656ZM257 64.7776C256.3 64.7776 255.744 64.549 255.334 64.0916C254.932 63.625 254.732 62.9623 254.732 62.1036V58.6876H253.472V57.5956H254.76L255.026 55.2996H255.992V57.5956H258.008V58.6876H255.992V62.2016C255.992 62.743 256.104 63.121 256.328 63.3356C256.561 63.5503 256.836 63.6576 257.154 63.6576C257.387 63.6576 257.606 63.6203 257.812 63.5456C258.026 63.471 258.222 63.3823 258.4 63.2796L258.75 64.2876C258.563 64.3996 258.311 64.507 257.994 64.6096C257.676 64.7216 257.345 64.7776 257 64.7776Z" fill="white"/>
</svg>
