<svg width="20" height="20" viewBox="0 0 20 20" fill="none" xmlns="http://www.w3.org/2000/svg">
<path d="M3 0.0498047H17C17.7824 0.0498047 18.5327 0.360832 19.0859 0.914062C19.6392 1.46729 19.9502 2.21761 19.9502 3V5C19.9502 5.86722 19.5763 6.64762 18.9795 7.1875L18.9629 7.20312V17.9648C18.9629 18.482 18.7573 18.9781 18.3916 19.3438C18.0259 19.7094 17.5298 19.915 17.0127 19.915H9.37305V19.9141L9.36328 19.916C9.24351 19.9386 9.12189 19.9502 9 19.9502H7C6.87811 19.9502 6.75649 19.9386 6.63672 19.916L6.62695 19.9648L6.63672 19.915H3.01074C2.49366 19.915 1.99747 19.7094 1.63184 19.3438C1.26627 18.9781 1.06055 18.4819 1.06055 17.9648V7.12402L1.00781 7.17578C0.711774 6.90516 0.473233 6.57706 0.308594 6.21094C0.13746 5.83026 0.0492222 5.41738 0.0498047 5V3C0.0498047 2.21761 0.360831 1.46729 0.914062 0.914062C1.46729 0.360831 2.21761 0.0498054 3 0.0498047ZM12.9668 7.19922C12.4265 7.68379 11.7257 7.9512 11 7.9502H9C8.24482 7.95019 7.55435 7.66623 7.0332 7.19922L7 7.16895L6.9668 7.19922C6.42654 7.68379 5.72573 7.9512 5 7.9502H2.95996V18.0146H5.0498V13C5.0498 12.4828 5.2554 11.9868 5.62109 11.6211C5.98679 11.2554 6.48283 11.0498 7 11.0498H9C9.51717 11.0498 10.0132 11.2554 10.3789 11.6211C10.7446 11.9868 10.9502 12.4828 10.9502 13V18.0146H17.0635V7.9502H15C14.2448 7.95019 13.5543 7.66623 13.0332 7.19922L13 7.16895L12.9668 7.19922ZM6.9502 18.0146H9V17.9658H9.0498V12.9502H6.9502V18.0146ZM14 11.0498H15C15.252 11.0498 15.4937 11.15 15.6719 11.3281C15.85 11.5063 15.9502 11.748 15.9502 12V15C15.9502 15.252 15.85 15.4937 15.6719 15.6719C15.4937 15.85 15.252 15.9502 15 15.9502H14C13.748 15.9502 13.5063 15.85 13.3281 15.6719C13.15 15.4937 13.0498 15.252 13.0498 15V12C13.0498 11.748 13.15 11.5063 13.3281 11.3281C13.5063 11.15 13.748 11.0498 14 11.0498ZM3 1.9502C2.72152 1.9502 2.45473 2.0609 2.25781 2.25781C2.0609 2.45473 1.9502 2.72152 1.9502 3V5C1.9502 5.27848 2.0609 5.54527 2.25781 5.74219C2.45473 5.9391 2.72152 6.0498 3 6.0498H5C5.27848 6.0498 5.54527 5.9391 5.74219 5.74219C5.9391 5.54527 6.0498 5.27848 6.0498 5V1.9502H3ZM7.9502 5C7.9502 5.27848 8.0609 5.54527 8.25781 5.74219C8.45472 5.9391 8.72152 6.0498 9 6.0498H11C11.2785 6.0498 11.5453 5.9391 11.7422 5.74219C11.9391 5.54527 12.0498 5.27848 12.0498 5V1.9502H7.9502V5ZM13.9502 5C13.9502 5.27848 14.0609 5.54527 14.2578 5.74219C14.4547 5.9391 14.7215 6.0498 15 6.0498H17C17.2785 6.0498 17.5453 5.9391 17.7422 5.74219C17.9391 5.54527 18.0498 5.27848 18.0498 5V3C18.0498 2.72152 17.9391 2.45473 17.7422 2.25781C17.5453 2.0609 17.2785 1.9502 17 1.9502H13.9502V5Z" fill="#181725" stroke="white" stroke-width="0.1"/>
</svg>
