<svg width="24" height="24" viewBox="0 0 24 24" fill="none" xmlns="http://www.w3.org/2000/svg">
<path d="M5 2.0498H19C19.7824 2.0498 20.5327 2.36083 21.0859 2.91406C21.6392 3.46729 21.9502 4.21761 21.9502 5V7C21.9502 7.86722 21.5763 8.64762 20.9795 9.1875L20.9629 9.20312V19.9648C20.9629 20.482 20.7573 20.9781 20.3916 21.3438C20.0259 21.7094 19.5298 21.915 19.0127 21.915H11.373V21.9141L11.3633 21.916C11.2435 21.9386 11.1219 21.9502 11 21.9502H9C8.87811 21.9502 8.75649 21.9386 8.63672 21.916L8.62695 21.9648L8.63672 21.915H5.01074C4.49366 21.915 3.99747 21.7094 3.63184 21.3438C3.26627 20.9781 3.06055 20.4819 3.06055 19.9648V9.12402L3.00781 9.17578C2.71177 8.90516 2.47323 8.57706 2.30859 8.21094C2.13746 7.83026 2.04922 7.41738 2.0498 7V5C2.0498 4.21761 2.36083 3.46729 2.91406 2.91406C3.46729 2.36083 4.21761 2.04981 5 2.0498ZM14.9668 9.19922C14.4265 9.68379 13.7257 9.9512 13 9.9502H11C10.2448 9.95019 9.55435 9.66623 9.0332 9.19922L9 9.16895L8.9668 9.19922C8.42654 9.68379 7.72573 9.9512 7 9.9502H4.95996V20.0146H7.0498V15C7.0498 14.4828 7.2554 13.9868 7.62109 13.6211C7.98679 13.2554 8.48283 13.0498 9 13.0498H11C11.5172 13.0498 12.0132 13.2554 12.3789 13.6211C12.7446 13.9868 12.9502 14.4828 12.9502 15V20.0146H19.0635V9.9502H17C16.2448 9.95019 15.5543 9.66623 15.0332 9.19922L15 9.16895L14.9668 9.19922ZM8.9502 20.0146H11V19.9658H11.0498V14.9502H8.9502V20.0146ZM16 13.0498H17C17.252 13.0498 17.4937 13.15 17.6719 13.3281C17.85 13.5063 17.9502 13.748 17.9502 14V17C17.9502 17.252 17.85 17.4937 17.6719 17.6719C17.4937 17.85 17.252 17.9502 17 17.9502H16C15.748 17.9502 15.5063 17.85 15.3281 17.6719C15.15 17.4937 15.0498 17.252 15.0498 17V14C15.0498 13.748 15.15 13.5063 15.3281 13.3281C15.5063 13.15 15.748 13.0498 16 13.0498ZM5 3.9502C4.72152 3.9502 4.45473 4.0609 4.25781 4.25781C4.0609 4.45473 3.9502 4.72152 3.9502 5V7C3.9502 7.27848 4.0609 7.54527 4.25781 7.74219C4.45473 7.9391 4.72152 8.0498 5 8.0498H7C7.27848 8.0498 7.54527 7.9391 7.74219 7.74219C7.9391 7.54527 8.0498 7.27848 8.0498 7V3.9502H5ZM9.9502 7C9.9502 7.27848 10.0609 7.54527 10.2578 7.74219C10.4547 7.9391 10.7215 8.0498 11 8.0498H13C13.2785 8.0498 13.5453 7.9391 13.7422 7.74219C13.9391 7.54527 14.0498 7.27848 14.0498 7V3.9502H9.9502V7ZM15.9502 7C15.9502 7.27848 16.0609 7.54527 16.2578 7.74219C16.4547 7.9391 16.7215 8.0498 17 8.0498H19C19.2785 8.0498 19.5453 7.9391 19.7422 7.74219C19.9391 7.54527 20.0498 7.27848 20.0498 7V5C20.0498 4.72152 19.9391 4.45473 19.7422 4.25781C19.5453 4.0609 19.2785 3.9502 19 3.9502H15.9502V7Z" fill="#181725" stroke="white" stroke-width="0.1"/>
</svg>
